WhiteRabbitx.sfdir
StartChar: quotedbl
Encoding: 34 34 10
Width: 1200
GlyphClass: 1
Flags: W
LayerCount: 2
Fore
SplineSet
700 1300 m 2,0,1
 700 1340 700 1340 730 1370 c 128,-1,2
 760 1400 760 1400 800 1400 c 128,-1,3
 840 1400 840 1400 870 1370 c 128,-1,4
 900 1340 900 1340 900 1300 c 2,5,-1
 900 1100 l 2,6,7
 900 1060 900 1060 870 1030 c 128,-1,8
 840 1000 840 1000 800 1000 c 128,-1,9
 760 1000 760 1000 730 1030 c 128,-1,10
 700 1060 700 1060 700 1100 c 2,11,-1
 700 1300 l 2,0,1
300 1300 m 2,12,13
 300 1340 300 1340 330 1370 c 128,-1,14
 360 1400 360 1400 400 1400 c 128,-1,15
 440 1400 440 1400 470 1370 c 128,-1,16
 500 1340 500 1340 500 1300 c 2,17,-1
 500 1100 l 2,18,19
 500 1060 500 1060 470 1030 c 128,-1,20
 440 1000 440 1000 400 1000 c 128,-1,21
 360 1000 360 1000 330 1030 c 128,-1,22
 300 1060 300 1060 300 1100 c 2,23,-1
 300 1300 l 2,12,13
EndSplineSet
EndChar
StartChar: ampersand
Encoding: 38 38 16
Width: 1200
GlyphClass: 1
Flags: W
LayerCount: 2
Fore
SplineSet
1000 0 m 256,0,1
 960 0 960 0 930 30 c 2,2,-1
 796 160 l 1,3,-1
 670 30 l 2,4,5
 640 0 640 0 600 0 c 2,6,-1
 400 0 l 2,7,8
 280 0 280 0 190 90 c 128,-1,9
 100 180 100 180 100 300 c 2,10,-1
 100 500 l 2,11,12
 100 540 100 540 130 570 c 2,13,-1
 260 700 l 1,14,-1
 130 830 l 2,15,16
 100 860 100 860 100 900 c 2,17,-1
 100 1100 l 2,18,19
 100 1220 100 1220 190 1310 c 128,-1,20
 280 1400 280 1400 400 1400 c 128,-1,21
 520 1400 520 1400 610 1310 c 128,-1,22
 700 1220 700 1220 700 1100 c 2,23,-1
 700 900 l 2,24,25
 700 860 700 860 670 830 c 2,26,-1
 536 700 l 1,27,-1
 670 570 l 1,28,-1
 800 440 l 1,29,-1
 930 570 l 2,30,31
 960 600 960 600 1000 600 c 128,-1,32
 1040 600 1040 600 1070 570 c 128,-1,33
 1100 540 1100 540 1100 500 c 128,-1,34
 1100 460 1100 460 1070 430 c 2,35,-1
 940 304 l 1,36,-1
 1070 170 l 2,37,38
 1100 140 1100 140 1100 100 c 128,-1,39
 1100 60 1100 60 1070 30 c 128,-1,40
 1040 0 1040 0 1000 0 c 256,0,1
300 944 m 1,41,-1
 400 844 l 1,42,-1
 500 944 l 1,43,-1
 500 1100 l 2,44,45
 500 1140 500 1140 470 1170 c 128,-1,46
 440 1200 440 1200 400 1200 c 256,47,48
 360 1200 360 1200 330 1170 c 128,-1,49
 300 1140 300 1140 300 1100 c 2,50,-1
 300 944 l 1,41,-1
660 300 m 1,51,-1
 400 560 l 1,52,-1
 300 456 l 1,53,-1
 300 300 l 2,54,55
 300 260 300 260 330 230 c 128,-1,56
 360 200 360 200 400 200 c 2,57,-1
 560 200 l 1,58,-1
 660 300 l 1,51,-1
EndSplineSet
EndChar
StartChar: four
Encoding: 52 52 28
Width: 1200
GlyphClass: 1
Flags: W
LayerCount: 2
Fore
SplineSet
300 600 m 1,0,-1
 700 600 l 1,1,-1
 700 1300 l 2,2,3
 700 1340 700 1340 730 1370 c 128,-1,4
 760 1400 760 1400 800 1400 c 128,-1,5
 840 1400 840 1400 870 1370 c 128,-1,6
 900 1340 900 1340 900 1300 c 2,7,-1
 900 600 l 1,8,-1
 1000 600 l 2,9,10
 1040 600 1040 600 1070 570 c 128,-1,11
 1100 540 1100 540 1100 500 c 128,-1,12
 1100 460 1100 460 1070 430 c 128,-1,13
 1040 400 1040 400 1000 400 c 2,14,-1
 900 400 l 1,15,-1
 900 100 l 2,16,17
 900 60 900 60 870 30 c 128,-1,18
 840 0 840 0 800 0 c 256,19,20
 760 0 760 0 730 30 c 128,-1,21
 700 60 700 60 700 100 c 2,22,-1
 700 400 l 1,23,-1
 200 400 l 2,24,25
 160 400 160 400 130 430 c 128,-1,26
 100 460 100 460 100 500 c 2,27,-1
 100 1100 l 2,28,29
 100 1140 100 1140 130 1170 c 128,-1,30
 160 1200 160 1200 200 1200 c 128,-1,31
 240 1200 240 1200 270 1170 c 128,-1,32
 300 1140 300 1140 300 1100 c 2,33,-1
 300 600 l 1,0,-1
EndSplineSet
EndChar
StartChar: five
Encoding: 53 53 29
Width: 1200
GlyphClass: 1
Flags: W
LayerCount: 2
Fore
SplineSet
200 600 m 2,0,1
 160 600 160 600 130 630 c 128,-1,2
 100 660 100 660 100 700 c 2,3,-1
 100 1300 l 2,4,5
 100 1340 100 1340 130 1370 c 128,-1,6
 160 1400 160 1400 200 1400 c 2,7,-1
 1000 1400 l 2,8,9
 1040 1400 1040 1400 1070 1370 c 128,-1,10
 1100 1340 1100 1340 1100 1300 c 128,-1,11
 1100 1260 1100 1260 1070 1230 c 128,-1,12
 1040 1200 1040 1200 1000 1200 c 2,13,-1
 300 1200 l 1,14,-1
 300 800 l 1,15,-1
 800 800 l 2,16,17
 920 800 920 800 1010 710 c 128,-1,18
 1100 620 1100 620 1100 500 c 2,19,-1
 1100 300 l 2,20,21
 1100 180 1100 180 1010 90 c 128,-1,22
 920 0 920 0 800 0 c 2,23,-1
 200 0 l 2,24,25
 160 0 160 0 130 30 c 128,-1,26
 100 60 100 60 100 100 c 128,-1,27
 100 140 100 140 130 170 c 128,-1,28
 160 200 160 200 200 200 c 2,29,-1
 800 200 l 2,30,31
 840 200 840 200 870 230 c 128,-1,32
 900 260 900 260 900 300 c 2,33,-1
 900 500 l 2,34,35
 900 540 900 540 870 570 c 128,-1,36
 840 600 840 600 800 600 c 2,37,-1
 200 600 l 2,0,1
EndSplineSet
EndChar
StartChar: greater
Encoding: 62 62 35
Width: 1200
GlyphClass: 1
Flags: W
LayerCount: 2
Fore
SplineSet
864 700 m 1,0,-1
 330 1230 l 2,1,2
 300 1260 300 1260 300 1300 c 128,-1,3
 300 1340 300 1340 330 1370 c 128,-1,4
 360 1400 360 1400 400 1400 c 128,-1,5
 440 1400 440 1400 470 1370 c 2,6,-1
 1070 770 l 2,7,8
 1100 740 1100 740 1100 700 c 128,-1,9
 1100 660 1100 660 1070 630 c 2,10,-1
 470 30 l 2,11,12
 440 0 440 0 400 0 c 256,13,14
 360 0 360 0 330 30 c 128,-1,15
 300 60 300 60 300 100 c 128,-1,16
 300 140 300 140 330 170 c 2,17,-1
 864 700 l 1,0,-1
EndSplineSet
EndChar
StartChar: at
Encoding: 64 64 38
Width: 1200
GlyphClass: 1
Flags: W
LayerCount: 2
Fore
SplineSet
800 400 m 256,0,1
 680 400 680 400 590 490 c 128,-1,2
 500 580 500 580 500 700 c 128,-1,3
 500 820 500 820 590 910 c 128,-1,4
 680 1000 680 1000 800 1000 c 2,5,-1
 900 1000 l 1,6,-1
 900 1100 l 2,7,8
 900 1140 900 1140 870 1170 c 128,-1,9
 840 1200 840 1200 800 1200 c 2,10,-1
 400 1200 l 2,11,12
 360 1200 360 1200 330 1170 c 128,-1,13
 300 1140 300 1140 300 1100 c 2,14,-1
 300 300 l 2,15,16
 300 260 300 260 330 230 c 128,-1,17
 360 200 360 200 400 200 c 2,18,-1
 1000 200 l 2,19,20
 1040 200 1040 200 1070 170 c 128,-1,21
 1100 140 1100 140 1100 100 c 128,-1,22
 1100 60 1100 60 1070 30 c 128,-1,23
 1040 0 1040 0 1000 0 c 2,24,-1
 400 0 l 2,25,26
 280 0 280 0 190 90 c 128,-1,27
 100 180 100 180 100 300 c 2,28,-1
 100 1100 l 2,29,30
 100 1220 100 1220 190 1310 c 128,-1,31
 280 1400 280 1400 400 1400 c 2,32,-1
 800 1400 l 2,33,34
 920 1400 920 1400 1010 1310 c 128,-1,35
 1100 1220 1100 1220 1100 1100 c 2,36,-1
 1100 700 l 2,37,38
 1100 580 1100 580 1010 490 c 128,-1,39
 920 400 920 400 800 400 c 256,0,1
800 800 m 256,40,41
 760 800 760 800 730 770 c 128,-1,42
 700 740 700 740 700 700 c 128,-1,43
 700 660 700 660 730 630 c 128,-1,44
 760 600 760 600 800 600 c 128,-1,45
 840 600 840 600 870 630 c 128,-1,46
 900 660 900 660 900 700 c 128,-1,47
 900 740 900 740 870 770 c 128,-1,48
 840 800 840 800 800 800 c 256,40,41
EndSplineSet
EndChar
StartChar: A
Encoding: 65 65 2
Width: 1200
GlyphClass: 1
Flags: W
LayerCount: 2
Fore
SplineSet
200 0 m 256,0,1
 160 0 160 0 130 30 c 128,-1,2
 100 60 100 60 100 100 c 2,3,-1
 100 1100 l 2,4,5
 100 1220 100 1220 190 1310 c 128,-1,6
 280 1400 280 1400 400 1400 c 2,7,-1
 800 1400 l 2,8,9
 920 1400 920 1400 1010 1310 c 128,-1,10
 1100 1220 1100 1220 1100 1100 c 2,11,-1
 1100 100 l 2,12,13
 1100 60 1100 60 1070 30 c 128,-1,14
 1040 0 1040 0 1000 0 c 128,-1,15
 960 0 960 0 930 30 c 128,-1,16
 900 60 900 60 900 100 c 2,17,-1
 900 600 l 1,18,-1
 300 600 l 1,19,-1
 300 100 l 2,20,21
 300 60 300 60 270 30 c 128,-1,22
 240 0 240 0 200 0 c 256,0,1
300 800 m 1,23,-1
 900 800 l 1,24,-1
 900 1100 l 2,25,26
 900 1140 900 1140 870 1170 c 128,-1,27
 840 1200 840 1200 800 1200 c 2,28,-1
 400 1200 l 2,29,30
 360 1200 360 1200 330 1170 c 128,-1,31
 300 1140 300 1140 300 1100 c 2,32,-1
 300 800 l 1,23,-1
EndSplineSet
EndChar
StartChar: B
Encoding: 66 66 9
Width: 1200
GlyphClass: 1
Flags: W
LayerCount: 2
Fore
SplineSet
200 0 m 2,0,1
 160 0 160 0 130 30 c 128,-1,2
 100 60 100 60 100 100 c 2,3,-1
 100 1300 l 2,4,5
 100 1340 100 1340 130 1370 c 128,-1,6
 160 1400 160 1400 200 1400 c 2,7,-1
 800 1400 l 2,8,9
 920 1400 920 1400 1010 1310 c 128,-1,10
 1100 1220 1100 1220 1100 1100 c 2,11,-1
 1100 900 l 2,12,13
 1100 780 1100 780 1010 690 c 1,14,15
 1100 620 1100 620 1100 500 c 2,16,-1
 1100 300 l 2,17,18
 1100 180 1100 180 1010 90 c 128,-1,19
 920 0 920 0 800 0 c 2,20,-1
 200 0 l 2,0,1
300 800 m 1,21,-1
 800 800 l 2,22,23
 840 800 840 800 870 830 c 128,-1,24
 900 860 900 860 900 900 c 2,25,-1
 900 1100 l 2,26,27
 900 1140 900 1140 870 1170 c 128,-1,28
 840 1200 840 1200 800 1200 c 2,29,-1
 300 1200 l 1,30,-1
 300 800 l 1,21,-1
300 200 m 1,31,-1
 800 200 l 2,32,33
 840 200 840 200 870 230 c 128,-1,34
 900 260 900 260 900 300 c 2,35,-1
 900 500 l 2,36,37
 900 540 900 540 870 570 c 128,-1,38
 840 600 840 600 800 600 c 2,39,-1
 300 600 l 1,40,-1
 300 200 l 1,31,-1
EndSplineSet
EndChar
StartChar: J
Encoding: 74 74 57
Width: 1200
GlyphClass: 1
Flags: W
LayerCount: 2
Fore
SplineSet
800 0 m 2,0,-1
 400 0 l 2,1,2
 280 0 280 0 190 90 c 128,-1,3
 100 180 100 180 100 300 c 0,4,5
 100 340 100 340 130 370 c 128,-1,6
 160 400 160 400 200 400 c 128,-1,7
 240 400 240 400 270 370 c 128,-1,8
 300 340 300 340 300 300 c 256,9,10
 300 260 300 260 330 230 c 128,-1,11
 360 200 360 200 400 200 c 2,12,-1
 800 200 l 2,13,14
 840 200 840 200 870 230 c 128,-1,15
 900 260 900 260 900 300 c 2,16,-1
 900 1300 l 2,17,18
 900 1340 900 1340 930 1370 c 128,-1,19
 960 1400 960 1400 1000 1400 c 128,-1,20
 1040 1400 1040 1400 1070 1370 c 128,-1,21
 1100 1340 1100 1340 1100 1300 c 2,22,-1
 1100 300 l 2,23,24
 1100 180 1100 180 1010 90 c 128,-1,25
 920 0 920 0 800 0 c 2,0,-1
EndSplineSet
EndChar
StartChar: O
Encoding: 79 79 62
Width: 1200
GlyphClass: 1
Flags: W
LayerCount: 2
Fore
SplineSet
400 0 m 2,0,1
 280 0 280 0 190 90 c 128,-1,2
 100 180 100 180 100 300 c 2,3,-1
 100 1100 l 2,4,5
 100 1220 100 1220 190 1310 c 128,-1,6
 280 1400 280 1400 400 1400 c 2,7,-1
 800 1400 l 2,8,9
 920 1400 920 1400 1010 1310 c 128,-1,10
 1100 1220 1100 1220 1100 1100 c 2,11,-1
 1100 300 l 2,12,13
 1100 180 1100 180 1010 90 c 128,-1,14
 920 0 920 0 800 0 c 2,15,-1
 400 0 l 2,0,1
900 1100 m 2,16,17
 900 1140 900 1140 870 1170 c 128,-1,18
 840 1200 840 1200 800 1200 c 2,19,-1
 400 1200 l 2,20,21
 360 1200 360 1200 330 1170 c 128,-1,22
 300 1140 300 1140 300 1100 c 2,23,-1
 300 300 l 2,24,25
 300 260 300 260 330 230 c 128,-1,26
 360 200 360 200 400 200 c 2,27,-1
 800 200 l 2,28,29
 840 200 840 200 870 230 c 128,-1,30
 900 260 900 260 900 300 c 2,31,-1
 900 1100 l 2,16,17
EndSplineSet
EndChar
StartChar: Q
Encoding: 81 81 64
Width: 1200
GlyphClass: 1
Flags: W
LayerCount: 2
Fore
SplineSet
900 1100 m 2,0,1
 900 1140 900 1140 870 1170 c 128,-1,2
 840 1200 840 1200 800 1200 c 2,3,-1
 400 1200 l 2,4,5
 360 1200 360 1200 330 1170 c 128,-1,6
 300 1140 300 1140 300 1100 c 2,7,-1
 300 300 l 2,8,9
 300 260 300 260 330 230 c 128,-1,10
 360 200 360 200 400 200 c 2,11,-1
 560 200 l 1,12,-1
 660 300 l 1,13,-1
 530 430 l 2,14,15
 500 460 500 460 500 500 c 128,-1,16
 500 540 500 540 530 570 c 128,-1,17
 560 600 560 600 600 600 c 128,-1,18
 640 600 640 600 670 570 c 2,19,-1
 772 468 l 1,20,-1
 900 596 l 1,21,-1
 900 1100 l 2,0,1
1100 500 m 2,22,23
 1100 460 1100 460 1070 430 c 2,24,-1
 936 300 l 1,25,-1
 1070 170 l 2,26,27
 1100 140 1100 140 1100 100 c 128,-1,28
 1100 60 1100 60 1070 30 c 128,-1,29
 1040 0 1040 0 1000 0 c 128,-1,30
 960 0 960 0 930 30 c 2,31,-1
 796 160 l 1,32,-1
 670 30 l 2,33,34
 640 0 640 0 600 0 c 2,35,-1
 400 0 l 2,36,37
 280 0 280 0 190 90 c 128,-1,38
 100 180 100 180 100 300 c 2,39,-1
 100 1100 l 2,40,41
 100 1220 100 1220 190 1310 c 128,-1,42
 280 1400 280 1400 400 1400 c 2,43,-1
 800 1400 l 2,44,45
 920 1400 920 1400 1010 1310 c 128,-1,46
 1100 1220 1100 1220 1100 1100 c 2,47,-1
 1100 500 l 2,22,23
EndSplineSet
EndChar
StartChar: R
Encoding: 82 82 65
Width: 1200
GlyphClass: 1
Flags: W
LayerCount: 2
Fore
SplineSet
300 800 m 1,0,-1
 800 800 l 2,1,2
 840 800 840 800 870 830 c 128,-1,3
 900 860 900 860 900 900 c 2,4,-1
 900 1100 l 2,5,6
 900 1140 900 1140 870 1170 c 128,-1,7
 840 1200 840 1200 800 1200 c 2,8,-1
 300 1200 l 1,9,-1
 300 800 l 1,0,-1
1000 0 m 256,10,11
 960 0 960 0 930 30 c 128,-1,12
 900 60 900 60 900 100 c 2,13,-1
 900 500 l 2,14,15
 900 540 900 540 870 570 c 128,-1,16
 840 600 840 600 800 600 c 2,17,-1
 300 600 l 1,18,-1
 300 100 l 2,19,20
 300 60 300 60 270 30 c 128,-1,21
 240 0 240 0 200 0 c 128,-1,22
 160 0 160 0 130 30 c 128,-1,23
 100 60 100 60 100 100 c 2,24,-1
 100 1300 l 2,25,26
 100 1340 100 1340 130 1370 c 128,-1,27
 160 1400 160 1400 200 1400 c 2,28,-1
 800 1400 l 2,29,30
 920 1400 920 1400 1010 1310 c 128,-1,31
 1100 1220 1100 1220 1100 1100 c 2,32,-1
 1100 900 l 2,33,34
 1100 780 1100 780 1010 690 c 1,35,36
 1100 620 1100 620 1100 500 c 2,37,-1
 1100 100 l 2,38,39
 1100 60 1100 60 1070 30 c 128,-1,40
 1040 0 1040 0 1000 0 c 256,10,11
EndSplineSet
EndChar
StartChar: V
Encoding: 86 86 69
Width: 1200
GlyphClass: 1
Flags: W
LayerCount: 2
Fore
SplineSet
600 0 m 256,0,1
 560 0 560 0 530 30 c 2,2,-1
 130 430 l 2,3,4
 100 460 100 460 100 500 c 2,5,-1
 100 1300 l 2,6,7
 100 1340 100 1340 130 1370 c 128,-1,8
 160 1400 160 1400 200 1400 c 128,-1,9
 240 1400 240 1400 270 1370 c 128,-1,10
 300 1340 300 1340 300 1300 c 2,11,-1
 300 596 l 1,12,-1
 600 296 l 1,13,-1
 900 596 l 1,14,-1
 900 1300 l 2,15,16
 900 1340 900 1340 930 1370 c 128,-1,17
 960 1400 960 1400 1000 1400 c 128,-1,18
 1040 1400 1040 1400 1070 1370 c 128,-1,19
 1100 1340 1100 1340 1100 1300 c 2,20,-1
 1100 500 l 2,21,22
 1100 460 1100 460 1070 430 c 2,23,-1
 670 30 l 2,24,25
 640 0 640 0 600 0 c 256,0,1
EndSplineSet
EndChar
StartChar: Y
Encoding: 89 89 72
Width: 1200
GlyphClass: 1
Flags: W
LayerCount: 2
Fore
SplineSet
500 660 m 1,0,-1
 130 1030 l 2,1,2
 100 1060 100 1060 100 1100 c 2,3,-1
 100 1300 l 2,4,5
 100 1340 100 1340 130 1370 c 128,-1,6
 160 1400 160 1400 200 1400 c 128,-1,7
 240 1400 240 1400 270 1370 c 128,-1,8
 300 1340 300 1340 300 1300 c 2,9,-1
 300 1140 l 1,10,-1
 600 840 l 1,11,-1
 900 1140 l 1,12,-1
 900 1300 l 2,13,14
 900 1340 900 1340 930 1370 c 128,-1,15
 960 1400 960 1400 1000 1400 c 128,-1,16
 1040 1400 1040 1400 1070 1370 c 128,-1,17
 1100 1340 1100 1340 1100 1300 c 2,18,-1
 1100 1100 l 2,19,20
 1100 1060 1100 1060 1070 1030 c 2,21,-1
 700 664 l 1,22,-1
 700 100 l 2,23,24
 700 60 700 60 670 30 c 128,-1,25
 640 0 640 0 600 0 c 128,-1,26
 560 0 560 0 530 30 c 128,-1,27
 500 60 500 60 500 100 c 2,28,-1
 500 660 l 1,0,-1
EndSplineSet
EndChar
StartChar: bracketleft
Encoding: 91 91 39
Width: 1200
GlyphClass: 1
Flags: W
LayerCount: 2
Fore
SplineSet
800 0 m 2,0,-1
 600 0 l 2,1,2
 560 0 560 0 530 30 c 128,-1,3
 500 60 500 60 500 100 c 2,4,-1
 500 1300 l 2,5,6
 500 1340 500 1340 530 1370 c 128,-1,7
 560 1400 560 1400 600 1400 c 2,8,-1
 800 1400 l 2,9,10
 840 1400 840 1400 870 1370 c 128,-1,11
 900 1340 900 1340 900 1300 c 128,-1,12
 900 1260 900 1260 870 1230 c 128,-1,13
 840 1200 840 1200 800 1200 c 2,14,-1
 700 1200 l 1,15,-1
 700 200 l 1,16,-1
 800 200 l 2,17,18
 840 200 840 200 870 170 c 128,-1,19
 900 140 900 140 900 100 c 128,-1,20
 900 60 900 60 870 30 c 128,-1,21
 840 0 840 0 800 0 c 2,0,-1
EndSplineSet
EndChar
StartChar: a
Encoding: 97 97 75
Width: 1200
GlyphClass: 1
Flags: W
LayerCount: 2
Fore
SplineSet
400 0 m 2,0,1
 280 0 280 0 190 90 c 128,-1,2
 100 180 100 180 100 300 c 256,3,4
 100 420 100 420 190 510 c 128,-1,5
 280 600 280 600 400 600 c 2,6,-1
 900 600 l 1,7,-1
 900 700 l 2,8,9
 900 740 900 740 870 770 c 128,-1,10
 840 800 840 800 800 800 c 2,11,-1
 400 800 l 2,12,13
 360 800 360 800 330 830 c 128,-1,14
 300 860 300 860 300 900 c 128,-1,15
 300 940 300 940 330 970 c 128,-1,16
 360 1000 360 1000 400 1000 c 2,17,-1
 800 1000 l 2,18,19
 920 1000 920 1000 1010 910 c 128,-1,20
 1100 820 1100 820 1100 700 c 2,21,-1
 1100 100 l 2,22,23
 1100 60 1100 60 1070 30 c 128,-1,24
 1040 0 1040 0 1000 0 c 2,25,-1
 400 0 l 2,0,1
900 400 m 1,26,-1
 400 400 l 2,27,28
 360 400 360 400 330 370 c 128,-1,29
 300 340 300 340 300 300 c 256,30,31
 300 260 300 260 330 230 c 128,-1,32
 360 200 360 200 400 200 c 2,33,-1
 900 200 l 1,34,-1
 900 400 l 1,26,-1
EndSplineSet
EndChar
StartChar: e
Encoding: 101 101 79
Width: 1200
GlyphClass: 1
Flags: W
LayerCount: 2
Fore
SplineSet
400 0 m 2,0,1
 280 0 280 0 190 90 c 128,-1,2
 100 180 100 180 100 300 c 2,3,-1
 100 700 l 2,4,5
 100 820 100 820 190 910 c 128,-1,6
 280 1000 280 1000 400 1000 c 2,7,-1
 800 1000 l 2,8,9
 920 1000 920 1000 1010 910 c 128,-1,10
 1100 820 1100 820 1100 700 c 2,11,-1
 1100 500 l 2,12,13
 1100 460 1100 460 1070 430 c 128,-1,14
 1040 400 1040 400 1000 400 c 2,15,-1
 300 400 l 1,16,-1
 300 300 l 2,17,18
 300 260 300 260 330 230 c 128,-1,19
 360 200 360 200 400 200 c 2,20,-1
 800 200 l 2,21,22
 840 200 840 200 870 170 c 128,-1,23
 900 140 900 140 900 100 c 128,-1,24
 900 60 900 60 870 30 c 128,-1,25
 840 0 840 0 800 0 c 2,26,-1
 400 0 l 2,0,1
300 600 m 1,27,-1
 900 600 l 1,28,-1
 900 700 l 2,29,30
 900 740 900 740 870 770 c 128,-1,31
 840 800 840 800 800 800 c 2,32,-1
 400 800 l 2,33,34
 360 800 360 800 330 770 c 128,-1,35
 300 740 300 740 300 700 c 2,36,-1
 300 600 l 1,27,-1
EndSplineSet
EndChar
StartChar: g
Encoding: 103 103 81
Width: 1200
GlyphClass: 1
Flags: W
LayerCount: 2
Fore
SplineSet
400 200 m 2,0,1
 280 200 280 200 190 290 c 128,-1,2
 100 380 100 380 100 500 c 2,3,-1
 100 700 l 2,4,5
 100 820 100 820 190 910 c 128,-1,6
 280 1000 280 1000 400 1000 c 2,7,-1
 1000 1000 l 2,8,9
 1040 1000 1040 1000 1070 970 c 128,-1,10
 1100 940 1100 940 1100 900 c 2,11,-1
 1100 100 l 2,12,13
 1100 -20 1100 -20 1010 -110 c 128,-1,14
 920 -200 920 -200 800 -200 c 2,15,-1
 400 -200 l 2,16,17
 360 -200 360 -200 330 -170 c 128,-1,18
 300 -140 300 -140 300 -100 c 128,-1,19
 300 -60 300 -60 330 -30 c 128,-1,20
 360 0 360 0 400 0 c 2,21,-1
 800 0 l 2,22,23
 840 0 840 0 870 30 c 128,-1,24
 900 60 900 60 900 100 c 2,25,-1
 900 200 l 1,26,-1
 400 200 l 2,0,1
900 400 m 1,27,-1
 900 800 l 1,28,-1
 400 800 l 2,29,30
 360 800 360 800 330 770 c 128,-1,31
 300 740 300 740 300 700 c 2,32,-1
 300 500 l 2,33,34
 300 460 300 460 330 430 c 128,-1,35
 360 400 360 400 400 400 c 2,36,-1
 900 400 l 1,27,-1
EndSplineSet
EndChar
StartChar: n
Encoding: 110 110 88
Width: 1200
GlyphClass: 1
Flags: W
LayerCount: 2
Fore
SplineSet
300 800 m 1,0,-1
 300 100 l 2,1,2
 300 60 300 60 270 30 c 128,-1,3
 240 0 240 0 200 0 c 128,-1,4
 160 0 160 0 130 30 c 128,-1,5
 100 60 100 60 100 100 c 2,6,-1
 100 900 l 2,7,8
 100 940 100 940 130 970 c 128,-1,9
 160 1000 160 1000 200 1000 c 2,10,-1
 800 1000 l 2,11,12
 920 1000 920 1000 1010 910 c 128,-1,13
 1100 820 1100 820 1100 700 c 2,14,-1
 1100 100 l 2,15,16
 1100 60 1100 60 1070 30 c 128,-1,17
 1040 0 1040 0 1000 0 c 128,-1,18
 960 0 960 0 930 30 c 128,-1,19
 900 60 900 60 900 100 c 2,20,-1
 900 700 l 2,21,22
 900 740 900 740 870 770 c 128,-1,23
 840 800 840 800 800 800 c 2,24,-1
 300 800 l 1,0,-1
EndSplineSet
EndChar
StartChar: s
Encoding: 115 115 93
Width: 1200
GlyphClass: 1
Flags: W
LayerCount: 2
Fore
SplineSet
400 400 m 2,0,1
 280 400 280 400 190 490 c 128,-1,2
 100 580 100 580 100 700 c 128,-1,3
 100 820 100 820 190 910 c 128,-1,4
 280 1000 280 1000 400 1000 c 2,5,-1
 1000 1000 l 2,6,7
 1040 1000 1040 1000 1070 970 c 128,-1,8
 1100 940 1100 940 1100 900 c 128,-1,9
 1100 860 1100 860 1070 830 c 128,-1,10
 1040 800 1040 800 1000 800 c 0,11,12
 440 800 440 800 400 800 c 256,13,14
 360 800 360 800 330 770 c 128,-1,15
 300 740 300 740 300 700 c 128,-1,16
 300 660 300 660 330 630 c 128,-1,17
 360 600 360 600 400 600 c 2,18,-1
 800 600 l 2,19,20
 920 600 920 600 1010 510 c 128,-1,21
 1100 420 1100 420 1100 300 c 128,-1,22
 1100 180 1100 180 1010 90 c 128,-1,23
 920 0 920 0 800 0 c 2,24,-1
 200 0 l 2,25,26
 160 0 160 0 130 30 c 128,-1,27
 100 60 100 60 100 100 c 128,-1,28
 100 140 100 140 130 170 c 128,-1,29
 160 200 160 200 200 200 c 2,30,-1
 800 200 l 2,31,32
 840 200 840 200 870 230 c 128,-1,33
 900 260 900 260 900 300 c 128,-1,34
 900 340 900 340 870 370 c 128,-1,35
 840 400 840 400 796 400 c 2,36,-1
 400 400 l 2,0,1
EndSplineSet
EndChar
StartChar: x
Encoding: 120 120 98
Width: 1200
GlyphClass: 1
Flags: W
LayerCount: 2
Fore
SplineSet
600 364 m 1,0,-1
 270 30 l 2,1,2
 240 0 240 0 200 0 c 128,-1,3
 160 0 160 0 130 30 c 128,-1,4
 100 60 100 60 100 100 c 128,-1,5
 100 140 100 140 130 170 c 2,6,-1
 456 500 l 1,7,-1
 130 830 l 2,8,9
 100 860 100 860 100 900 c 128,-1,10
 100 940 100 940 130 970 c 128,-1,11
 160 1000 160 1000 200 1000 c 128,-1,12
 240 1000 240 1000 270 970 c 2,13,-1
 600 644 l 1,14,-1
 930 970 l 2,15,16
 960 1000 960 1000 1000 1000 c 128,-1,17
 1040 1000 1040 1000 1070 970 c 128,-1,18
 1100 940 1100 940 1100 900 c 128,-1,19
 1100 860 1100 860 1070 830 c 2,20,-1
 736 500 l 1,21,-1
 1070 170 l 2,22,23
 1100 140 1100 140 1100 100 c 128,-1,24
 1100 60 1100 60 1070 30 c 128,-1,25
 1040 0 1040 0 1000 0 c 128,-1,26
 960 0 960 0 930 30 c 2,27,-1
 600 364 l 1,0,-1
EndSplineSet
EndChar
StartChar: z
Encoding: 122 122 100
Width: 1200
GlyphClass: 1
Flags: W
LayerCount: 2
Fore
SplineSet
200 0 m 2,0,1
 160 0 160 0 130 30 c 128,-1,2
 100 60 100 60 100 100 c 128,-1,3
 100 140 100 140 130 170 c 2,4,-1
 756 800 l 1,5,-1
 200 800 l 2,6,7
 160 800 160 800 130 830 c 128,-1,8
 100 860 100 860 100 900 c 128,-1,9
 100 940 100 940 130 970 c 128,-1,10
 160 1000 160 1000 200 1000 c 2,11,-1
 1000 1000 l 2,12,13
 1040 1000 1040 1000 1070 970 c 128,-1,14
 1100 940 1100 940 1100 900 c 128,-1,15
 1100 860 1100 860 1070 830 c 2,16,-1
 436 200 l 1,17,-1
 1000 200 l 2,18,19
 1040 200 1040 200 1070 170 c 128,-1,20
 1100 140 1100 140 1100 100 c 128,-1,21
 1100 60 1100 60 1070 30 c 128,-1,22
 1040 0 1040 0 1000 0 c 2,23,-1
 200 0 l 2,0,1
EndSplineSet
EndChar
StartChar: bar
Encoding: 124 124 46
Width: 1200
GlyphClass: 1
Flags: W
LayerCount: 2
Fore
SplineSet
600 0 m 256,0,1
 560 0 560 0 530 30 c 128,-1,2
 500 60 500 60 500 100 c 2,3,-1
 500 1300 l 2,4,5
 500 1340 500 1340 530 1370 c 128,-1,6
 560 1400 560 1400 600 1400 c 128,-1,7
 640 1400 640 1400 670 1370 c 128,-1,8
 700 1340 700 1340 700 1300 c 2,9,-1
 700 100 l 2,10,11
 700 60 700 60 670 30 c 128,-1,12
 640 0 640 0 600 0 c 256,0,1
EndSplineSet
EndChar
StartChar: asciitilde
Encoding: 126 126 47
Width: 1200
GlyphClass: 1
Flags: W
LayerCount: 2
Fore
SplineSet
200 1000 m 256,0,1
 160 1000 160 1000 130 1030 c 128,-1,2
 100 1060 100 1060 100 1100 c 0,3,4
 100 1216 100 1216 190 1308 c 128,-1,5
 280 1400 280 1400 400 1400 c 256,6,7
 520 1400 520 1400 610 1310 c 128,-1,8
 700 1220 700 1220 700 1100 c 0,9,10
 700 1060 700 1060 730 1030 c 128,-1,11
 760 1000 760 1000 800 1000 c 256,12,13
 840 1000 840 1000 870 1030 c 128,-1,14
 900 1060 900 1060 900 1100 c 256,15,16
 900 1140 900 1140 930 1170 c 128,-1,17
 960 1200 960 1200 1000 1200 c 128,-1,18
 1040 1200 1040 1200 1070 1170 c 128,-1,19
 1100 1140 1100 1140 1100 1100 c 0,20,21
 1100 980 1100 980 1010 890 c 128,-1,22
 920 800 920 800 800 800 c 256,23,24
 680 800 680 800 590 890 c 128,-1,25
 500 980 500 980 500 1100 c 0,26,27
 500 1140 500 1140 470 1170 c 128,-1,28
 440 1200 440 1200 400 1200 c 256,29,30
 360 1200 360 1200 330 1170 c 128,-1,31
 300 1140 300 1140 300 1100 c 256,32,33
 300 1060 300 1060 270 1030 c 128,-1,34
 240 1000 240 1000 200 1000 c 256,0,1
EndSplineSet
EndChar
